<svg width="180" height="45" viewBox="0 0 180 45" fill="none" xmlns="http://www.w3.org/2000/svg">
<rect width="180" height="45" rx="22.5" fill="#F9CADA"/>
<path d="M44.042 29H36.7734V16.1504H44.042V17.9258H38.874V21.4238H43.7168V23.1816H38.874V27.2158H44.042V29ZM48.7705 24.0342L45.5098 19.2793H47.8652L50.0801 22.6807L52.3125 19.2793H54.6504L51.3809 24.0342L54.8174 29H52.4795L50.0801 25.3613L47.6895 29H45.3516L48.7705 24.0342ZM61.4531 29.1758C60.2227 29.1758 59.2676 28.7334 58.5879 27.8486H58.4648C58.5469 28.6689 58.5879 29.167 58.5879 29.3428V33.3242H56.5225V19.2793H58.1924C58.2393 19.4609 58.3359 19.8945 58.4824 20.5801H58.5879C59.2324 19.5957 60.1992 19.1035 61.4883 19.1035C62.7012 19.1035 63.6445 19.543 64.3184 20.4219C64.998 21.3008 65.3379 22.5342 65.3379 24.1221C65.3379 25.71 64.9922 26.9492 64.3008 27.8398C63.6152 28.7305 62.666 29.1758 61.4531 29.1758ZM60.9521 20.791C60.1318 20.791 59.5312 21.0312 59.1504 21.5117C58.7754 21.9922 58.5879 22.7598 58.5879 23.8145V24.1221C58.5879 25.3057 58.7754 26.1641 59.1504 26.6973C59.5254 27.2246 60.1377 27.4883 60.9873 27.4883C61.7021 27.4883 62.2529 27.1953 62.6396 26.6094C63.0264 26.0234 63.2197 25.1885 63.2197 24.1045C63.2197 23.0146 63.0264 22.1914 62.6396 21.6348C62.2588 21.0723 61.6963 20.791 60.9521 20.791ZM69.8027 29H67.7373V15.3242H69.8027V29ZM81.3867 24.1221C81.3867 25.71 80.9795 26.9492 80.165 27.8398C79.3506 28.7305 78.2168 29.1758 76.7637 29.1758C75.8555 29.1758 75.0527 28.9707 74.3555 28.5605C73.6582 28.1504 73.1221 27.5615 72.7471 26.7939C72.3721 26.0264 72.1846 25.1357 72.1846 24.1221C72.1846 22.5459 72.5889 21.3154 73.3975 20.4307C74.2061 19.5459 75.3457 19.1035 76.8164 19.1035C78.2227 19.1035 79.3359 19.5576 80.1562 20.4658C80.9766 21.3682 81.3867 22.5869 81.3867 24.1221ZM74.3115 24.1221C74.3115 26.3662 75.1406 27.4883 76.7988 27.4883C78.4395 27.4883 79.2598 26.3662 79.2598 24.1221C79.2598 21.9014 78.4336 20.791 76.7812 20.791C75.9141 20.791 75.2842 21.0781 74.8916 21.6523C74.5049 22.2266 74.3115 23.0498 74.3115 24.1221ZM88.6992 19.1035C89.1152 19.1035 89.458 19.1328 89.7275 19.1914L89.5254 21.1162C89.2324 21.0459 88.9277 21.0107 88.6113 21.0107C87.7852 21.0107 87.1143 21.2803 86.5986 21.8193C86.0889 22.3584 85.834 23.0586 85.834 23.9199V29H83.7686V19.2793H85.3857L85.6582 20.9932H85.7637C86.0859 20.4131 86.5049 19.9531 87.0205 19.6133C87.542 19.2734 88.1016 19.1035 88.6992 19.1035ZM95.7832 29.1758C94.2715 29.1758 93.0879 28.7363 92.2324 27.8574C91.3828 26.9727 90.958 25.7568 90.958 24.21C90.958 22.6221 91.3535 21.374 92.1445 20.4658C92.9355 19.5576 94.0225 19.1035 95.4053 19.1035C96.6885 19.1035 97.7021 19.4932 98.4463 20.2725C99.1904 21.0518 99.5625 22.124 99.5625 23.4893V24.6055H93.085C93.1143 25.5488 93.3691 26.2754 93.8496 26.7852C94.3301 27.2891 95.0068 27.541 95.8799 27.541C96.4541 27.541 96.9873 27.4883 97.4795 27.3828C97.9775 27.2715 98.5107 27.0898 99.0791 26.8379V28.5166C98.5752 28.7568 98.0654 28.9268 97.5498 29.0264C97.0342 29.126 96.4453 29.1758 95.7832 29.1758ZM95.4053 20.668C94.749 20.668 94.2217 20.876 93.8232 21.292C93.4307 21.708 93.1963 22.3145 93.1201 23.1113H97.5322C97.5205 22.3086 97.3271 21.7021 96.9521 21.292C96.5771 20.876 96.0615 20.668 95.4053 20.668ZM117.51 29H114.935L108.615 18.7607H108.545L108.589 19.332C108.671 20.4219 108.712 21.418 108.712 22.3203V29H106.805V16.1504H109.354L115.655 26.3369H115.708C115.696 26.2021 115.673 25.7129 115.638 24.8691C115.603 24.0195 115.585 23.3574 115.585 22.8828V16.1504H117.51V29ZM129.305 24.1221C129.305 25.71 128.897 26.9492 128.083 27.8398C127.269 28.7305 126.135 29.1758 124.682 29.1758C123.773 29.1758 122.971 28.9707 122.273 28.5605C121.576 28.1504 121.04 27.5615 120.665 26.7939C120.29 26.0264 120.103 25.1357 120.103 24.1221C120.103 22.5459 120.507 21.3154 121.315 20.4307C122.124 19.5459 123.264 19.1035 124.734 19.1035C126.141 19.1035 127.254 19.5576 128.074 20.4658C128.895 21.3682 129.305 22.5869 129.305 24.1221ZM122.229 24.1221C122.229 26.3662 123.059 27.4883 124.717 27.4883C126.357 27.4883 127.178 26.3662 127.178 24.1221C127.178 21.9014 126.352 20.791 124.699 20.791C123.832 20.791 123.202 21.0781 122.81 21.6523C122.423 22.2266 122.229 23.0498 122.229 24.1221ZM139.658 29L138.401 24.4648C138.249 23.9844 137.974 22.8682 137.575 21.1162H137.496C137.156 22.6982 136.887 23.8203 136.688 24.4824L135.396 29H133.11L130.386 19.2793H132.495L133.734 24.0693C134.016 25.2529 134.215 26.2666 134.332 27.1104H134.385C134.443 26.6826 134.531 26.1934 134.648 25.6426C134.771 25.0859 134.877 24.6699 134.965 24.3945L136.441 19.2793H138.709L140.142 24.3945C140.229 24.6816 140.338 25.1211 140.467 25.7129C140.602 26.3047 140.681 26.7646 140.704 27.0928H140.774C140.862 26.3721 141.067 25.3643 141.39 24.0693L142.646 19.2793H144.721L141.979 29H139.658Z" fill="black"/>
</svg>
